<svg xmlns="http://www.w3.org/2000/svg" width="25" height="25" viewBox="0 0 50 50" style="fill: rgb(255, 198, 41);">
    <path d="M 25 0 C 19.486 0 15 4.486 15 10 C 15 11.069 15.189 12.0875 15.5 13.0625 C 19.743 13.8325 22.82275 14.878 24.71875 15.625 L 25 15.71875 L 25.28125 15.625 C 27.17425 14.878 30.264 13.86375 34.5 13.09375 C 34.818 12.11075 35 11.06 35 10 C 35 4.486 30.514 0 25 0 z M 3 14 C 2.448 14 2 14.448 2 15 L 2 21 L 3 21 C 5.804 21 8 23.196 8 26 L 8 28 C 8 30.804 5.804 33 3 33 L 2 33 L 2 43 C 2 43.553 2.448 44 3 44 C 14.842 44 22.261 48.38625 24 49.53125 L 24 17.46875 C 21.085 16.31875 13.844 14 3 14 z M 47 14 C 36.156 14 28.915 16.31875 26 17.46875 L 26 49.53125 C 27.738 48.38525 35.159 44 47 44 C 47.553 44 48 43.553 48 43 L 48 33 L 47 33 C 44.196 33 42 30.804 42 28 L 42 26 C 42 23.196 44.196 21 47 21 L 48 21 L 48 15 C 48 14.448 47.553 14 47 14 z M 2 23 C 0.9 23 0 23.9 0 25 L 0 29 C 0 30.1 0.9 31 2 31 L 3 31 C 4.7 31 6 29.7 6 28 L 6 26 C 6 24.3 4.7 23 3 23 L 2 23 z M 47 23 C 46.7875 23 46.573242 23.023633 46.375 23.0625 C 44.987305 23.33457 44 24.5125 44 26 L 44 28 C 44 29.7 45.3 31 47 31 L 48 31 C 49.1 31 50 30.1 50 29 L 50 25 C 50 23.9 49.1 23 48 23 L 47 23 z"/>
</svg>