<?xml version="1.0" encoding="utf-8"?>
<!-- Generator: Adobe Illustrator 16.0.3, SVG Export Plug-In . SVG Version: 6.00 Build 0)  -->
<!DOCTYPE svg PUBLIC "-//W3C//DTD SVG 1.1//EN" "http://www.w3.org/Graphics/SVG/1.1/DTD/svg11.dtd">
<svg version="1.1" id="Selected_Items" xmlns="http://www.w3.org/2000/svg" xmlns:xlink="http://www.w3.org/1999/xlink" x="0px"
	 y="0px" width="30.65px" height="55.05px" viewBox="0 0 30.65 55.05" enable-background="new 0 0 30.65 55.05"
	 xml:space="preserve">
<g>
	<g>
		<path fill-rule="evenodd" clip-rule="evenodd" fill="#FFFFFF" d="M3.45,39.05c1.867-3.267,3.967-4.9,6.3-4.9H20.9
			c2.3,0,4.383,1.633,6.25,4.9c0.933,1.6,1.633,3.217,2.1,4.85l1.4,7l-4.2,1.35c-0.2-2.333-0.483-4.184-0.85-5.55l-0.55-1.4
			c-1.233-2.467-2.15-3.867-2.75-4.2l0.55,12.7c-2.2,0.833-4.483,1.25-6.85,1.25c-2.934,0-5.667-0.617-8.2-1.85l0.55-12.1
			c-0.4,0.2-0.983,0.967-1.75,2.3c-0.367,0.633-0.716,1.267-1.05,1.9l-0.5,1.4c-0.4,1.367-0.7,3.217-0.9,5.55L0,50.9l1.4-7
			C1.866,42.267,2.55,40.65,3.45,39.05z M15.35,17.4c1.9,0,3.534,0.683,4.9,2.05c1.366,1.367,2.05,3,2.05,4.9
			c0,1.967-0.684,3.617-2.05,4.95c-1.367,1.367-3,2.05-4.9,2.05c-1.933,0-3.583-0.683-4.95-2.05c-1.367-1.333-2.05-2.983-2.05-4.95
			c0-1.9,0.684-3.533,2.05-4.9S13.417,17.4,15.35,17.4z"/>
	</g>
	<g>
		<path fill-rule="evenodd" clip-rule="evenodd" fill="#FFFFFF" d="M24.4,11.15c-0.733,0.7-1.583,1.167-2.55,1.4
			c-0.466,0.133-0.95,0.2-1.45,0.2v4.65c-3.3-1.2-6.7-1.2-10.2,0v-4.65c-1.1-0.034-2.083-0.317-2.95-0.85
			c-0.367-0.2-0.7-0.45-1-0.75c-1.134-1.1-1.7-2.4-1.7-3.9c0-1.534,0.566-2.833,1.7-3.9c1.1-1.066,2.45-1.6,4.05-1.6
			c0.267,0,0.517,0.017,0.75,0.05c0.066-0.067,0.133-0.133,0.2-0.2C12.383,0.533,13.733,0,15.3,0c1.566,0,2.917,0.533,4.05,1.6
			c0.067,0.067,0.133,0.133,0.2,0.2c0.267-0.033,0.533-0.05,0.8-0.05c1.6,0,2.95,0.533,4.05,1.6c1.133,1.067,1.7,2.367,1.7,3.9
			C26.1,8.75,25.533,10.05,24.4,11.15z"/>
	</g>
</g>
</svg>
